<svg width="24" height="24" viewBox="0 0 24 24" fill="none" xmlns="http://www.w3.org/2000/svg">
<path fill-rule="evenodd" clip-rule="evenodd" d="M3 4C3 3.44772 3.44772 3 4 3H9.6C10.1523 3 10.6 3.44772 10.6 4V9.6C10.6 10.1523 10.1523 10.6 9.6 10.6H4C3.44772 10.6 3 10.1523 3 9.6V4ZM5 5V8.6H8.6V5H5ZM13.4 20V14.4C13.4 13.8477 13.8477 13.4 14.4 13.4H20C20.5523 13.4 21 13.8477 21 14.4V20C21 20.5523 20.5523 21 20 21H14.4C13.8477 21 13.4 20.5523 13.4 20ZM15.4 19H19V15.4H15.4V19ZM4 13.4C3.44772 13.4 3 13.8477 3 14.4V20C3 20.5523 3.44772 21 4 21H9.6C10.1523 21 10.6 20.5523 10.6 20V14.4C10.6 13.8477 10.1523 13.4 9.6 13.4H4ZM5 19V15.4H8.6V19H5ZM13.6929 6.49289C14.0834 6.10237 14.7166 6.10237 15.1071 6.49289L16 7.38579L19.2929 4.09289C19.6834 3.70237 20.3166 3.70237 20.7071 4.09289C21.0976 4.48342 21.0976 5.11658 20.7071 5.50711L16.7071 9.50711C16.3166 9.89763 15.6834 9.89763 15.2929 9.50711L13.6929 7.90711C13.3024 7.51658 13.3024 6.88342 13.6929 6.49289Z" fill="#62666A"/>
</svg>
