<svg width="24" height="24" viewBox="0 0 24 24" fill="none" xmlns="http://www.w3.org/2000/svg">
<path fill-rule="evenodd" clip-rule="evenodd" d="M5.6 5C5.26863 5 5 5.26863 5 5.6V18.4C5 18.7314 5.26863 19 5.6 19H18.4C18.7314 19 19 18.7314 19 18.4V5.6C19 5.26863 18.7314 5 18.4 5H5.6ZM3 5.6C3 4.16406 4.16406 3 5.6 3H18.4C19.8359 3 21 4.16406 21 5.6V18.4C21 19.8359 19.8359 21 18.4 21H5.6C4.16406 21 3 19.8359 3 18.4V5.6ZM12 7C12.5523 7 13 7.44772 13 8V11H16C16.5523 11 17 11.4477 17 12C17 12.5523 16.5523 13 16 13H13V16C13 16.5523 12.5523 17 12 17C11.4477 17 11 16.5523 11 16V13H8C7.44772 13 7 12.5523 7 12C7 11.4477 7.44772 11 8 11H11V8C11 7.44772 11.4477 7 12 7Z" fill="#62666A"/>
</svg>
