<svg width="24" height="24" viewBox="0 0 24 24" fill="none" xmlns="http://www.w3.org/2000/svg">
<path fill-rule="evenodd" clip-rule="evenodd" d="M12 3C16.9777 3 21 7.02228 21 12C21 16.9777 16.9777 21 12 21C7.02228 21 3 16.9777 3 12C3 7.02228 7.02228 3 12 3ZM12 23C18.0823 23 23 18.0823 23 12C23 5.91772 18.0823 1 12 1C5.91772 1 1 5.91772 1 12C1 18.0823 5.91772 23 12 23ZM11.003 17.0841C11.003 17.6356 11.4484 18.0811 12 18.0811C12.5445 18.074 12.997 17.6215 12.997 17.0841V12.997H17.0841C17.6356 12.997 18.0811 12.5515 18.0811 12C18.0811 11.4485 17.6356 11.003 17.0841 11.003L12.997 11.003V6.9159C12.997 6.36436 12.5515 5.91888 12 5.91888C11.7355 5.91858 11.4817 6.02353 11.2947 6.21057C11.1076 6.39761 11.0027 6.65138 11.003 6.9159L11.003 11.003L6.91589 11.003C6.65137 11.0027 6.3976 11.1076 6.21056 11.2947C6.02352 11.4817 5.91857 11.7355 5.91887 12C5.91887 12.5515 6.36435 12.997 6.91589 12.997H11.003L11.003 17.0841Z" fill="#62666A"/>
</svg>
