<svg width="24" height="24" viewBox="0 0 24 24" fill="none" xmlns="http://www.w3.org/2000/svg">
<path d="M17 13.9998C17 15.6566 15.6569 16.9998 14 16.9998C15.6569 16.9998 17 18.3429 17 19.9998C17 18.3429 18.3431 16.9998 20 16.9998C18.3431 16.9998 17 15.6566 17 13.9998Z" fill="#62666A"/>
<path d="M17 4C17 5.65685 15.6569 7 14 7C15.6569 7 17 8.34314 17 10C17 8.34314 18.3431 7 20 7C18.3431 7 17 5.65685 17 4Z" fill="#62666A"/>
<path d="M10 6C10 9.31371 7.31371 12 4 12C7.31371 12 10 14.6863 10 18C10 14.6863 12.6863 12 16 12C12.6863 12 10 9.31371 10 6Z" fill="#62666A"/>
</svg>
