<svg width="24" height="24" viewBox="0 0 24 24" fill="none" xmlns="http://www.w3.org/2000/svg">
<path fill-rule="evenodd" clip-rule="evenodd" d="M21 12C21 7.03228 16.9677 3 12 3C7.03228 3 3 7.03228 3 12C3 16.9677 7.03228 21 12 21C16.9677 21 21 16.9677 21 12ZM23 12C23 18.0723 18.0723 23 12 23C5.92772 23 1 18.0723 1 12C1 5.92772 5.92772 1 12 1C18.0723 1 23 5.92772 23 12ZM12 13C11.45 13 11 12.55 11 12V8C11 7.45 11.45 7 12 7C12.55 7 13 7.45 13 8V12C13 12.55 12.55 13 12 13ZM11 15V17H13V15H11Z" fill="#62666A"/>
</svg>
