<svg width="24" height="24" viewBox="0 0 24 24" fill="none" xmlns="http://www.w3.org/2000/svg">
<path d="M10.0625 3.87464C10.4398 3.87464 10.8135 3.8963 11.1788 3.93655L12.1781 4.04661L11.958 6.04633L10.9577 5.93725C10.664 5.90507 10.3652 5.88714 10.0625 5.88714C5.62406 5.88714 2.01273 9.49875 2.01249 13.9371C2.01249 18.3757 5.62392 21.9871 10.0625 21.9871C14.501 21.9871 18.1124 18.3757 18.1124 13.9371C18.1124 13.6344 18.0955 13.3346 18.0633 13.0409L17.9533 12.0406L19.954 11.8205L20.064 12.8208C20.1042 13.1879 20.1249 13.56 20.1249 13.9371C20.1249 19.4856 15.6109 23.9996 10.0625 23.9996C4.51402 23.9996 0 19.4856 0 13.9371C0.000233169 8.38886 4.51417 3.87464 10.0625 3.87464Z" fill="#767B7F"/>
<path fill-rule="evenodd" clip-rule="evenodd" d="M19.5579 3.01874L21.426 1.1507L22.8489 2.5736L20.9808 4.44164L23.9996 5.44789L19.3899 10.0585L16.3712 9.05131L14.9807 10.4408C15.6846 11.4281 16.0999 12.6347 16.1 13.9371C16.1 17.2668 13.3921 19.9746 10.0625 19.9746C6.7328 19.9746 4.02499 17.2668 4.02499 13.9371C4.02522 10.6076 6.73294 7.89963 10.0625 7.89963C11.3646 7.89963 12.5707 8.31544 13.5578 9.01888L14.9493 7.6294L13.943 4.60967L18.5517 0L19.5579 3.01874ZM10.0625 9.91212C7.84283 9.91212 6.03772 11.7175 6.03748 13.9371C6.03748 16.1569 7.84269 17.9621 10.0625 17.9621C12.2823 17.9621 14.0875 16.1569 14.0875 13.9371C14.0874 13.1915 13.8821 12.4935 13.5273 11.8942L12.0003 13.4222C12.0435 13.5881 12.0749 13.7582 12.075 13.9371C12.075 15.049 11.1744 15.9496 10.0625 15.9496C8.95057 15.9496 8.04998 15.049 8.04998 13.9371C8.0502 12.8254 8.95071 11.9246 10.0625 11.9246C10.2415 11.9246 10.4115 11.9561 10.5774 12.0003L12.1054 10.4713C11.5062 10.1168 10.8079 9.91212 10.0625 9.91212Z" fill="#767B7F"/>
</svg>
