<svg width="24" height="24" viewBox="0 0 24 24" fill="none" xmlns="http://www.w3.org/2000/svg">
<path d="M12.9997 18.7912V7.62123L17.8797 12.5012C18.2697 12.8912 18.9097 12.8912 19.2997 12.5012C19.6897 12.1112 19.6897 11.4812 19.2997 11.0912L12.7097 4.50123C12.5229 4.31397 12.2692 4.20874 12.0047 4.20874C11.7402 4.20874 11.4866 4.31397 11.2997 4.50123L4.69973 11.0812C4.30973 11.4712 4.30973 12.1012 4.69973 12.4912C5.08973 12.8812 5.71973 12.8812 6.10973 12.4912L10.9997 7.62123V18.7912C10.9997 19.3412 11.4497 19.7912 11.9997 19.7912C12.5497 19.7912 12.9997 19.3412 12.9997 18.7912Z" fill="#62666A"/>
</svg>
