<svg width="24" height="24" viewBox="0 0 24 24" fill="none" xmlns="http://www.w3.org/2000/svg">
<path d="M11.0046 5.20874V16.3787L6.12461 11.4987C5.73461 11.1087 5.09461 11.1087 4.70461 11.4987C4.31461 11.8887 4.31461 12.5187 4.70461 12.9087L11.2946 19.4987C11.6846 19.8887 12.3146 19.8887 12.7046 19.4987L19.2946 12.9087C19.6846 12.5187 19.6846 11.8887 19.2946 11.4987C19.1078 11.3115 18.8541 11.2063 18.5896 11.2063C18.3251 11.2063 18.0714 11.3115 17.8846 11.4987L13.0046 16.3787V5.20874C13.0046 4.65874 12.5546 4.20874 12.0046 4.20874C11.4546 4.20874 11.0046 4.65874 11.0046 5.20874Z" fill="#62666A"/>
</svg>
