<svg width="24" height="24" viewBox="0 0 24 24" fill="none" xmlns="http://www.w3.org/2000/svg">
<path fill-rule="evenodd" clip-rule="evenodd" d="M5 4H6.2V8.38582C5.52154 8.28878 5 7.70529 5 7V4ZM4 2H7.2H16.8H20C20.5523 2 21 2.44772 21 3V7C21 8.83947 19.5392 10.3378 17.7144 10.3981C17.2977 12.8009 15.4025 14.6966 13 15.1141V16.4H13.6C15.9196 16.4 17.8 18.2804 17.8 20.6C17.8 21.1523 17.3523 21.6 16.8 21.6H7.2C6.64772 21.6 6.2 21.1523 6.2 20.6C6.2 18.2804 8.0804 16.4 10.4 16.4H11V15.1141C8.59752 14.6966 6.7023 12.8009 6.28556 10.3981C4.46077 10.3378 3 8.83947 3 7V3C3 2.44772 3.44772 2 4 2ZM12 18.4H10.4C9.54506 18.4 8.80403 18.8877 8.43988 19.6H15.5601C15.196 18.8877 14.4549 18.4 13.6 18.4H12ZM17.8 8.38582V4H19V7C19 7.70529 18.4785 8.28878 17.8 8.38582ZM15.8 4V9.4C15.8 11.4987 14.0987 13.2 12 13.2C9.90132 13.2 8.2 11.4987 8.2 9.4V4H15.8Z" fill="#62666A"/>
</svg>
