<svg width="24" height="24" viewBox="0 0 24 24" fill="none" xmlns="http://www.w3.org/2000/svg">
<path d="M13.7647 20H3.11111C2.49746 20 2 19.4883 2 18.8571V16.5714C2 15.9402 2.49746 15.4286 3.11111 15.4286H13.7647V20Z" fill="#62666A"/>
<path d="M18.4706 15.4286C19.0842 15.4286 19.5817 15.9402 19.5817 16.5714V18.8571C19.5817 19.4883 19.0842 20 18.4706 20H14.9412V15.4286H18.4706Z" fill="#62666A"/>
<path d="M16.1176 14.2857H5.33333C4.71968 14.2857 4.22222 13.774 4.22222 13.1429V10.8571C4.22222 10.226 4.71968 9.71429 5.33333 9.71429H16.1176V14.2857Z" fill="#62666A"/>
<path d="M20.8889 9.71429C21.5025 9.71429 22 10.226 22 10.8571V13.1429C22 13.774 21.5025 14.2857 20.8889 14.2857H17.2941V9.71429H20.8889Z" fill="#62666A"/>
<path d="M13.7647 8.57143H3.11111C2.49746 8.57143 2 8.05975 2 7.42857V5.14286C2 4.51167 2.49746 4 3.11111 4H13.7647V8.57143Z" fill="#62666A"/>
<path d="M18.4706 4C19.0842 4 19.5817 4.51167 19.5817 5.14286V7.42857C19.5817 8.05975 19.0842 8.57143 18.4706 8.57143H14.9412V4H18.4706Z" fill="#62666A"/>
</svg>
