<svg width="24" height="24" viewBox="0 0 24 24" fill="none" xmlns="http://www.w3.org/2000/svg">
<path fill-rule="evenodd" clip-rule="evenodd" d="M13.5354 5.44815L11.1736 4.04038L8.81167 5.44815H13.5354ZM17.2001 5.44815L11.6246 2.12494C11.3451 1.95835 11.002 1.95835 10.7225 2.12494L5.14701 5.44815H2.90909C2.40701 5.44815 2 5.87269 2 6.39639V18.4649C2 18.9886 2.40701 19.4132 2.90909 19.4132H12C12.5021 19.4132 12.9091 18.9886 12.9091 18.4649C12.9091 17.9412 12.5021 17.5167 12 17.5167H3.81818V7.34463H5.37248C5.38366 7.34485 5.39486 7.34485 5.40606 7.34463H16.941C16.9522 7.34485 16.9634 7.34485 16.9746 7.34463H18.5289V8.96454C18.2875 8.9197 18.0389 8.8963 17.7851 8.8963C15.4573 8.8963 13.5702 10.8646 13.5702 13.2927C13.5702 14.2723 13.8774 15.177 14.3967 15.9079V21.051C14.3967 21.6983 15.0046 22.1553 15.5933 21.9506L17.7851 21.1885L19.977 21.9506C20.5656 22.1553 21.1736 21.6983 21.1736 21.051V15.9079C21.6929 15.177 22 14.2723 22 13.2927C22 11.8699 21.352 10.605 20.3471 9.80142V6.39639C20.3471 5.87269 19.9401 5.44815 19.438 5.44815H17.2001ZM18.9588 11.1126C18.975 11.1231 18.9915 11.133 19.0084 11.1425C19.711 11.5783 20.1818 12.3781 20.1818 13.2927C20.1818 14.6734 19.1088 15.7926 17.7851 15.7926C16.4615 15.7926 15.3884 14.6734 15.3884 13.2927C15.3884 11.912 16.4615 10.7928 17.7851 10.7928C18.2115 10.7928 18.6119 10.9089 18.9588 11.1126ZM19.3554 17.3739C18.8701 17.5772 18.3401 17.6891 17.7851 17.6891C17.2301 17.6891 16.7002 17.5772 16.2149 17.3739V19.7354L17.4976 19.2894C17.6843 19.2245 17.886 19.2245 18.0726 19.2894L19.3554 19.7354V17.3739ZM6.21488 11.6548H12C12.5021 11.6548 12.9091 11.2303 12.9091 10.7066C12.9091 10.1829 12.5021 9.75834 12 9.75834H6.21488C5.7128 9.75834 5.30579 10.1829 5.30579 10.7066C5.30579 11.2303 5.7128 11.6548 6.21488 11.6548ZM9.52066 15.103H6.21488C5.7128 15.103 5.30579 14.6784 5.30579 14.1547C5.30579 13.631 5.7128 13.2065 6.21488 13.2065H9.52066C10.0227 13.2065 10.4298 13.631 10.4298 14.1547C10.4298 14.6784 10.0227 15.103 9.52066 15.103Z" fill="#62666A"/>
</svg>
