<svg width="11" height="11" viewBox="0 0 11 11" fill="none" xmlns="http://www.w3.org/2000/svg">
<path d="M10.756 0.252358C10.6001 0.0961368 10.3885 0.00834282 10.1678 0.00834282C9.94712 0.00834282 9.73551 0.0961368 9.57964 0.252358L5.5 4.32366L1.42036 0.244016C1.26449 0.087794 1.05288 0 0.832196 0C0.611513 0 0.399897 0.087794 0.244027 0.244016C-0.0813424 0.569386 -0.0813424 1.09498 0.244027 1.42035L4.32366 5.49999L0.244027 9.57963C-0.0813424 9.90501 -0.0813424 10.4306 0.244027 10.756C0.569397 11.0813 1.09499 11.0813 1.42036 10.756L5.5 6.67633L9.57964 10.756C9.90501 11.0813 10.4306 11.0813 10.756 10.756C11.0813 10.4306 11.0813 9.90501 10.756 9.57963L6.67634 5.49999L10.756 1.42035C11.073 1.10333 11.073 0.569386 10.756 0.252358Z" fill="#62666A"/>
</svg>
