<svg width="24" height="24" viewBox="0 0 24 24" fill="none" xmlns="http://www.w3.org/2000/svg">
<path d="M20.999 1C21.5512 1.00008 21.998 1.40985 21.998 1.91602V22.083C21.9979 22.5891 21.5511 22.9999 20.999 23H3C2.44781 23 2.00011 22.5892 2 22.083V1.91602C2.00007 1.4098 2.44778 1 3 1H20.999ZM7.09668 15.2598C6.55558 15.2601 6.1173 15.7151 6.11719 16.2773C6.11734 16.8395 6.5556 17.2956 7.09668 17.2959H8.07715C8.61841 17.2958 9.05747 16.8397 9.05762 16.2773C9.0575 15.715 8.61843 15.2598 8.07715 15.2598H7.09668ZM12 15.2598C11.4588 15.26 11.0206 15.715 11.0205 16.2773C11.0207 16.8396 11.4588 17.2957 12 17.2959H16.9023C17.4434 17.2956 17.8817 16.8395 17.8818 16.2773C17.8817 15.7151 17.4434 15.2601 16.9023 15.2598H12ZM7.09668 11.1855C6.55554 11.1858 6.11723 11.6408 6.11719 12.2031C6.11734 12.7653 6.5556 13.2214 7.09668 13.2217H8.07715C8.61841 13.2216 9.05747 12.7655 9.05762 12.2031C9.05757 11.6407 8.61848 11.1856 8.07715 11.1855H7.09668ZM12 11.1855C11.4588 11.1857 11.0206 11.6408 11.0205 12.2031C11.0207 12.7654 11.4588 13.2215 12 13.2217H16.9023C17.4434 13.2214 17.8817 12.7653 17.8818 12.2031C17.8818 11.6408 17.4435 11.1859 16.9023 11.1855H12ZM7.09668 7.11133C6.55553 7.11164 6.11719 7.56756 6.11719 8.12988C6.11755 8.69188 6.55575 9.14715 7.09668 9.14746H8.07715C8.61829 9.14741 9.05823 8.69205 9.05859 8.12988C9.05859 7.56739 8.61852 7.11138 8.07715 7.11133H7.09668ZM12 7.11133C11.4587 7.11151 11.0205 7.56748 11.0205 8.12988C11.0209 8.69197 11.459 9.14727 12 9.14746H16.9023C17.4433 9.14715 17.8815 8.69189 17.8818 8.12988C17.8818 7.56755 17.4435 7.11164 16.9023 7.11133H12Z" fill="#62666A"/>
</svg>
