<svg width="19" height="23" viewBox="0 0 19 23" fill="none" xmlns="http://www.w3.org/2000/svg">
<path d="M17 10.5V3C17 1.89543 16.1046 1 15 1H8.0784C7.548 1 7.0393 1.21071 6.66421 1.58579L1.58579 6.66421C1.21071 7.03929 1 7.54799 1 8.07843V19C1 20.1046 1.89543 21 3 21H6.5" stroke="#62666A" stroke-width="2" stroke-linecap="round" stroke-linejoin="round"/>
<path d="M1 8H8V1" stroke="#62666A" stroke-width="2" stroke-linecap="round" stroke-linejoin="round"/>
<path d="M12.5 20C14.433 20 16 18.433 16 16.5C16 14.567 14.433 13 12.5 13C10.567 13 9 14.567 9 16.5C9 18.433 10.567 20 12.5 20Z" stroke="#62666A" stroke-width="2" stroke-linecap="round" stroke-linejoin="round"/>
<path d="M17.5 21.5L14.975 18.975" stroke="#62666A" stroke-width="2" stroke-linecap="round" stroke-linejoin="round"/>
</svg>
