<svg width="24" height="24" viewBox="0 0 24 24" fill="none" xmlns="http://www.w3.org/2000/svg">
<path fill-rule="evenodd" clip-rule="evenodd" d="M14.2727 4H9.72727V5.27272H14.2727V4ZM16.2727 5.27272V3C16.2727 2.44772 15.825 2 15.2727 2H8.72727C8.17499 2 7.72727 2.44772 7.72727 3V5.27272H3C2.44772 5.27272 2 5.72043 2 6.27272V16.0909C2 16.6432 2.44772 17.0909 3 17.0909H21C21.5523 17.0909 22 16.6432 22 16.0909V6.27272C22 5.72043 21.5523 5.27272 21 5.27272H16.2727ZM15.2678 7.27271L15.2727 7.27273L15.2777 7.27271H20V15.0909H4V7.27271H8.72234L8.72727 7.27273L8.73221 7.27271H15.2678ZM4.81818 20V18.5455C4.81818 17.9932 4.37046 17.5455 3.81818 17.5455C3.2659 17.5455 2.81818 17.9932 2.81818 18.5455V21C2.81818 21.5523 3.2659 22 3.81818 22H20.1818C20.7341 22 21.1818 21.5523 21.1818 21V18.5455C21.1818 17.9932 20.7341 17.5455 20.1818 17.5455C19.6295 17.5455 19.1818 17.9932 19.1818 18.5455V20H4.81818ZM8.54545 9.54546C8.54545 8.99317 8.99317 8.54546 9.54545 8.54546H14.4545C15.0068 8.54546 15.4545 8.99317 15.4545 9.54546V12.8182C15.4545 13.3705 15.0068 13.8182 14.4545 13.8182H9.54545C8.99317 13.8182 8.54545 13.3705 8.54545 12.8182V9.54546ZM10.5455 11.8182H13.4545V10.5455H10.5455V11.8182Z" fill="#62666A"/>
</svg>
