<svg width="44" height="53" viewBox="0 0 44 53" fill="none" xmlns="http://www.w3.org/2000/svg">
<g opacity="0.5">
<path fill-rule="evenodd" clip-rule="evenodd" d="M4.68518 2.46035C3.44766 2.46035 2.44444 3.47009 2.44444 4.71566V48.2843C2.44444 49.5299 3.44766 50.5396 4.68519 50.5396H39.3148C40.5523 50.5396 41.5556 49.5299 41.5556 48.2843V17.4873C41.5556 17.4158 41.5522 17.3447 41.5455 17.2741H31.525C28.9375 17.2741 26.8398 15.1629 26.8398 12.5585V2.47066C26.769 2.46381 26.6976 2.46035 26.6258 2.46035H4.68518ZM29.2843 4.20197L39.8275 14.8138H31.525C30.2875 14.8138 29.2843 13.804 29.2843 12.5585V4.20197ZM0 4.71566C0 2.11127 2.09763 0 4.68518 0H26.6258C27.8684 0 29.0601 0.496828 29.9387 1.38119L42.6277 14.1528C43.5064 15.0371 44 16.2366 44 17.4873V48.2843C44 50.8887 41.9024 53 39.3148 53H4.68519C2.09763 53 0 50.8887 0 48.2843V4.71566ZM23.1319 24.6943C23.1319 24.0149 22.5847 23.4641 21.9097 23.4641C21.2347 23.4641 20.6875 24.0149 20.6875 24.6943V29.2535H16.1558C15.4808 29.2535 14.9336 29.8043 14.9336 30.4837C14.9336 31.1631 15.4808 31.7139 16.1558 31.7139H20.6875V36.274C20.6875 36.9535 21.2347 37.5042 21.9097 37.5042C22.5847 37.5042 23.1319 36.9535 23.1319 36.274V31.7139H27.6607C28.3357 31.7139 28.8829 31.1631 28.8829 30.4837C28.8829 29.8043 28.3357 29.2535 27.6607 29.2535H23.1319V24.6943ZM11.5343 30.5751C11.5343 24.7577 16.2198 20.0417 21.9996 20.0417C27.7794 20.0417 32.4648 24.7577 32.4648 30.5751C32.4648 36.3925 27.7794 41.1085 21.9996 41.1085C16.2198 41.1085 11.5343 36.3925 11.5343 30.5751ZM21.9996 17.5814C14.8697 17.5814 9.08984 23.3989 9.08984 30.5751C9.08984 37.7513 14.8697 43.5688 21.9996 43.5688C29.1294 43.5688 34.9093 37.7513 34.9093 30.5751C34.9093 23.3989 29.1294 17.5814 21.9996 17.5814Z" fill="url(#paint0_linear_569_5263)"/>
</g>
<defs>
<linearGradient id="paint0_linear_569_5263" x1="22" y1="0" x2="22" y2="49.8734" gradientUnits="userSpaceOnUse">
<stop stop-color="#6D7275"/>
<stop offset="1" stop-color="#6D7275" stop-opacity="0"/>
</linearGradient>
</defs>
</svg>
