<svg width="44" height="53" viewBox="0 0 44 53" fill="none" xmlns="http://www.w3.org/2000/svg">
<path fill-rule="evenodd" clip-rule="evenodd" d="M2.58824 4.77869C2.58824 3.57905 3.5539 2.60656 4.7451 2.60656H26.6098C26.655 2.60656 26.7002 2.60799 26.7451 2.61083V12.5984C26.7451 15.2376 28.8696 17.377 31.4902 17.377H41.4075C41.4103 17.4223 41.4118 17.4677 41.4118 17.5133V48.2213C41.4118 49.4209 40.4461 50.3934 39.2549 50.3934H4.7451C3.5539 50.3934 2.58824 49.4209 2.58824 48.2213V4.77869ZM39.5816 14.7705L29.3333 4.44967V12.5984C29.3333 13.798 30.299 14.7705 31.4902 14.7705H39.5816ZM4.7451 0C2.12445 0 0 2.13949 0 4.77869V48.2213C0 50.8605 2.12445 53 4.7451 53H39.2549C41.8755 53 44 50.8605 44 48.2213V17.5133C44 16.2459 43.5001 15.0305 42.6102 14.1343L29.9651 1.39965C29.0752 0.503467 27.8682 0 26.6098 0H4.7451ZM9.4902 41.2705C9.4902 40.5507 10.0696 39.9672 10.7843 39.9672H33.2157C33.9304 39.9672 34.5098 40.5507 34.5098 41.2705C34.5098 41.9903 33.9304 42.5738 33.2157 42.5738H10.7843C10.0696 42.5738 9.4902 41.9903 9.4902 41.2705ZM10.7843 31.2787C10.0696 31.2787 9.4902 31.8622 9.4902 32.582C9.4902 33.3017 10.0696 33.8852 10.7843 33.8852H33.2157C33.9304 33.8852 34.5098 33.3017 34.5098 32.582C34.5098 31.8622 33.9304 31.2787 33.2157 31.2787H10.7843ZM9.4902 23.8934C9.4902 23.1737 10.0696 22.5902 10.7843 22.5902H33.2157C33.9304 22.5902 34.5098 23.1737 34.5098 23.8934C34.5098 24.6132 33.9304 25.1967 33.2157 25.1967H10.7843C10.0696 25.1967 9.4902 24.6132 9.4902 23.8934ZM10.7843 13.9016C10.0696 13.9016 9.4902 14.4851 9.4902 15.2049C9.4902 15.9247 10.0696 16.5082 10.7843 16.5082H20.2745C20.9892 16.5082 21.5686 15.9247 21.5686 15.2049C21.5686 14.4851 20.9892 13.9016 20.2745 13.9016H10.7843Z" fill="url(#paint0_linear_569_5447)"/>
<defs>
<linearGradient id="paint0_linear_569_5447" x1="22" y1="0" x2="22" y2="49.8734" gradientUnits="userSpaceOnUse">
<stop stop-color="#6D7275"/>
<stop offset="1" stop-color="#6D7275" stop-opacity="0"/>
</linearGradient>
</defs>
</svg>
