<svg width="24" height="24" viewBox="0 0 24 24" fill="none" xmlns="http://www.w3.org/2000/svg">
<path fill-rule="evenodd" clip-rule="evenodd" d="M7.99902 7C7.99902 6.45 7.54902 6 6.99902 6C6.44902 6 5.99902 6.45 5.99902 7V17C5.99902 17.55 6.44902 18 6.99902 18C7.54902 18 7.99902 17.55 7.99902 17V7ZM13.819 12L17.699 15.89C18.089 16.27 18.089 16.91 17.709 17.29C17.319 17.68 16.689 17.68 16.299 17.29L11.709 12.7C11.319 12.31 11.319 11.68 11.709 11.29L16.299 6.7C16.4859 6.51275 16.7395 6.40751 17.004 6.40751C17.2685 6.40751 17.5222 6.51275 17.709 6.7C18.099 7.09 18.099 7.72 17.709 8.11L13.819 12Z" fill="#62666A"/>
</svg>
