<svg width="24" height="24" viewBox="0 0 24 24" fill="none" xmlns="http://www.w3.org/2000/svg">
<path d="M7 19V5H12.525C13.6083 5 14.6083 5.33333 15.525 6C16.4417 6.66667 16.9 7.59167 16.9 8.775C16.9 9.625 16.7083 10.2792 16.325 10.7375C15.9417 11.1958 15.5833 11.525 15.25 11.725C15.6667 11.9083 16.1292 12.25 16.6375 12.75C17.1458 13.25 17.4 14 17.4 15C17.4 16.4833 16.8583 17.5208 15.775 18.1125C14.6917 18.7042 13.675 19 12.725 19H7ZM10.025 16.2H12.625C13.425 16.2 13.9125 15.9958 14.0875 15.5875C14.2625 15.1792 14.35 14.8833 14.35 14.7C14.35 14.5167 14.2625 14.2208 14.0875 13.8125C13.9125 13.4042 13.4 13.2 12.55 13.2H10.025V16.2ZM10.025 10.5H12.35C12.9 10.5 13.3 10.3583 13.55 10.075C13.8 9.79167 13.925 9.475 13.925 9.125C13.925 8.725 13.7833 8.4 13.5 8.15C13.2167 7.9 12.85 7.775 12.4 7.775H10.025V10.5Z" fill="#62666A"/>
</svg>
