<svg width="23" height="21" viewBox="0 0 23 21" fill="none" xmlns="http://www.w3.org/2000/svg">
<path fill-rule="evenodd" clip-rule="evenodd" d="M0 3C0 1.34315 1.34315 0 3 0H19C20.6569 0 22 1.34315 22 3V8.5278C20.9385 7.5777 19.5367 7 18 7C14.6863 7 12 9.6863 12 13C12 14.0996 12.2958 15.1301 12.8121 16.0163L12.3713 18H3C1.34315 18 0 16.6569 0 15V3ZM11 6H10H5H4V4H5H10H11V6ZM7 10H8V8H7H5H4V10H5H7Z" fill="#62666A"/>
<path d="M17.9992 9C15.7901 9 13.9992 10.7909 13.9992 13C13.9992 15.2091 15.7901 17 17.9992 17C20.2083 17 21.9992 15.2091 21.9992 13C21.9992 10.7909 20.2083 9 17.9992 9Z" fill="#62666A"/>
<path d="M14.4165 18.0146L13.7531 21H22.2463L21.5829 18.0146C20.5347 18.6404 19.3092 19 17.9997 19C16.6902 19 15.4647 18.6404 14.4165 18.0146Z" fill="#62666A"/>
</svg>
