<svg width="22" height="22" viewBox="0 0 22 22" fill="none" xmlns="http://www.w3.org/2000/svg">
<path d="M8.55392 0C3.93827 1.13825 0.43732 5.11197 1.52588e-05 9.97008H4.70477C4.91237 6.41656 6.19542 2.91472 8.55392 0Z" fill="#62666A"/>
<path d="M11 21.9416C8.23705 19.1894 6.73589 15.6439 6.49648 12.0299H15.5035C15.2641 15.6439 13.7629 19.1894 11 21.9416Z" fill="#62666A"/>
<path d="M4.70475 12.0299H0C0.437305 16.888 3.93824 20.8617 8.5539 22C6.19539 19.0852 4.91234 15.5834 4.70475 12.0299Z" fill="#62666A"/>
<path d="M17.2952 12.0299C17.0876 15.5834 15.8046 19.0852 13.446 22C18.0617 20.8617 21.5627 16.888 22 12.0299H17.2952Z" fill="#62666A"/>
<path d="M6.4965 9.97022C6.73591 6.35615 8.23708 2.81079 11 0.0585403C13.7629 2.81079 15.2641 6.35615 15.5035 9.97022H6.4965Z" fill="#62666A"/>
<path d="M13.4461 1.14441e-05C15.8046 2.91473 17.0876 6.41657 17.2952 9.97009H22C21.5627 5.11198 18.0617 1.13826 13.4461 1.14441e-05Z" fill="#62666A"/>
</svg>
