<svg width="17" height="16" viewBox="0 0 17 16" fill="none" xmlns="http://www.w3.org/2000/svg">
<path d="M17 16H13.2428V10.3754C13.2428 8.90312 12.655 7.89806 11.3627 7.89806C10.3741 7.89806 9.82438 8.57629 9.5685 9.22994C9.47254 9.46456 9.48754 9.79138 9.48754 10.1182V16H5.76529C5.76529 16 5.81326 6.0365 5.76529 5.13082H9.48754V6.83665C9.70743 6.0908 10.8969 5.02632 12.795 5.02632C15.1499 5.02632 17 6.58974 17 9.95633V16ZM2.00106 3.77127H1.97707C0.777634 3.77127 0 2.94039 0 1.88717C0 0.813472 0.800623 0 2.02405 0C3.24647 0 3.99812 0.811424 4.02211 1.8841C4.02211 2.93731 3.24647 3.77127 2.00106 3.77127ZM0.428798 5.13082H3.74224V16H0.428798V5.13082Z" fill="#007EBB"/>
</svg>
