<svg width="24" height="24" viewBox="0 0 24 24" fill="none" xmlns="http://www.w3.org/2000/svg">
<path fill-rule="evenodd" clip-rule="evenodd" d="M11.979 22.0002C11.986 22.0004 11.993 22.0005 12 22.0004C12.007 22.0005 12.014 22.0004 12.021 22.0002C17.5342 21.9889 22 17.5161 22 12.0002C22 6.48438 17.5342 2.01157 12.021 2.00026C12.014 2.0001 12.007 2.00003 12 2.00003C11.993 2.00003 11.986 2.0001 11.979 2.00026C6.46583 2.01157 2 6.48438 2 12.0002C2 17.5161 6.46581 21.9889 11.979 22.0002ZM15.5224 19.3871C18.0181 18.1949 19.8151 15.7752 20.1319 12.9093H17.84C17.6847 15.4296 16.8809 17.6703 15.5224 19.3871ZM20.1319 11.0911C19.8151 8.2253 18.0181 5.80556 15.5224 4.61336C16.8809 6.33015 17.6847 8.57084 17.84 11.0911H20.1319ZM8.4776 19.3871C7.11913 17.6703 6.31529 15.4296 6.15997 12.9093H3.86812C4.18492 15.7752 5.98189 18.1949 8.4776 19.3871ZM3.86812 11.0911H6.15997C6.31529 8.57084 7.11913 6.33015 8.4776 4.61336C5.98189 5.80556 4.18492 8.2253 3.86812 11.0911ZM12.9091 4.55054C14.7192 5.9894 15.8219 8.30465 16.018 11.0911H12.9091V4.55054ZM16.018 12.9093H12.9091V19.4499C14.7192 18.0111 15.8219 15.6958 16.018 12.9093ZM11.0909 19.4499C9.28083 18.0111 8.17806 15.6958 7.98197 12.9093H11.0909V19.4499ZM7.98197 11.0911H11.0909V4.55054C9.28083 5.9894 8.17806 8.30465 7.98197 11.0911Z" fill="#62666A"/>
</svg>
