<svg width="24" height="24" viewBox="0 0 24 24" fill="none" xmlns="http://www.w3.org/2000/svg">
<path fill-rule="evenodd" clip-rule="evenodd" d="M18.0015 7C18.0015 6.45 17.5515 6 17.0015 6C16.4515 6 16.0015 6.45 16.0015 7V17C16.0015 17.55 16.4515 18 17.0015 18C17.5515 18 18.0015 17.55 18.0015 17V7ZM10.1815 12L6.29152 8.11C5.91152 7.73 5.91152 7.09 6.29152 6.7C6.47835 6.51275 6.73201 6.40751 6.99652 6.40751C7.26104 6.40751 7.51469 6.51275 7.70152 6.7L12.2915 11.3C12.6815 11.69 12.6815 12.32 12.2915 12.71L7.70152 17.3C7.31152 17.69 6.68152 17.69 6.29152 17.3C5.90152 16.91 5.90152 16.28 6.29152 15.89L10.1815 12Z" fill="#62666A"/>
</svg>
