<svg width="24" height="24" viewBox="0 0 24 24" fill="none" xmlns="http://www.w3.org/2000/svg">
<path fill-rule="evenodd" clip-rule="evenodd" d="M16.1667 4H19.5C20.8807 4 22 5.07452 22 6.4V17.6C22 18.9255 20.8807 20 19.5 20H16.1685C16.1679 20 16.1673 20 16.1667 20C16.1661 20 16.1654 20 16.1648 20H4.5C3.11929 20 2 18.9255 2 17.6V14.4V9.6V6.4C2 5.07452 3.11929 4 4.5 4H16.1667ZM3.66667 10.4V13.6H15.3333V10.4H3.66667ZM3.66667 15.2V17.6C3.66667 18.0418 4.03976 18.4 4.5 18.4H15.3333V15.2H3.66667ZM17 18.4H19.5C19.9602 18.4 20.3333 18.0418 20.3333 17.6V6.4C20.3333 5.95817 19.9602 5.6 19.5 5.6H17L17 9.6V14.4L17 18.4ZM15.3333 5.6V8.8H3.66667V6.4C3.66667 5.95817 4.03976 5.6 4.5 5.6H15.3333Z" fill="#62666A"/>
</svg>
