<svg width="24" height="24" viewBox="0 0 24 24" fill="none" xmlns="http://www.w3.org/2000/svg">
<path fill-rule="evenodd" clip-rule="evenodd" d="M9 8C9 7.44772 8.55228 7 8 7H6L5.71623 7.00475C3.75851 7.0712 2.40236 7.83148 1.65372 9.12562C1.13532 10.0217 1 10.8796 1 12C1 12.8669 1.05952 13.4602 1.31518 14.1774C1.9422 15.9362 3.4876 17 6 17H10L10.2511 16.9963C13.3115 16.9053 15 15.1342 15 12C15 11.4477 14.5523 11 14 11C13.4477 11 13 11.4477 13 12C13 14.1144 12.1144 15 10 15H6L5.76663 14.9963C4.25057 14.9476 3.52283 14.414 3.19905 13.5058C3.04117 13.0629 3 12.6525 3 12C3 10.0257 3.59333 9 5.99997 8.9935L6.00014 9H8L8.11662 8.99327C8.61396 8.93551 9 8.51284 9 8ZM15 16C15 16.5523 15.4477 17 16 17H18L18.2838 16.9952C20.2415 16.9288 21.5976 16.1685 22.3463 14.8744C22.8647 13.9783 23 13.1204 23 12C23 11.1331 22.9405 10.5398 22.6848 9.82264C22.0578 8.06381 20.5124 7 18 7H14L13.7489 7.00369C10.6885 7.09473 9 8.86576 9 12C9 12.5523 9.44771 13 10 13C10.5523 13 11 12.5523 11 12C11 9.88562 11.8856 9 14 9H18L18.2334 9.00366C19.7494 9.05242 20.4772 9.58602 20.801 10.4942C20.9588 10.9371 21 11.3475 21 12C21 13.9743 20.4067 15 18 15.0065L17.9999 15H16L15.8834 15.0067C15.386 15.0645 15 15.4872 15 16Z" fill="#62666A"/>
</svg>
