<svg width="24" height="24" viewBox="0 0 24 24" fill="none" xmlns="http://www.w3.org/2000/svg">
<path fill-rule="evenodd" clip-rule="evenodd" d="M19.9167 2.83345C19.9167 3.52261 20.4775 4.08343 21.1667 4.08343C21.6267 4.08343 22 4.45676 22 4.91676C22 5.37675 21.6267 5.75008 21.1667 5.75008C20.4775 5.75008 19.9167 6.31091 19.9167 7.00007C19.9167 7.46006 19.5433 7.83339 19.0834 7.83339C18.6234 7.83339 18.25 7.46006 18.25 7.00007C18.25 6.31091 17.6892 5.75008 17 5.75008C16.54 5.75008 16.1667 5.37675 16.1667 4.91676C16.1667 4.45676 16.54 4.08343 17 4.08343C17.6892 4.08343 18.25 3.52261 18.25 2.83345C18.25 2.37345 18.6234 2.00012 19.0834 2.00012C19.5433 2.00012 19.9167 2.37345 19.9167 2.83345ZM14.2559 7.24424L16.7559 9.74421C17.0817 10.07 17.0817 10.5967 16.7559 10.9225L5.92267 21.7558C5.76017 21.9183 5.54684 21.9999 5.33351 21.9999C5.12017 21.9999 4.90684 21.9183 4.74435 21.7558L2.24437 19.2558C1.91854 18.9299 1.91854 18.4033 2.24437 18.0775L13.0776 7.24424C13.4034 6.91841 13.9301 6.91841 14.2559 7.24424ZM11.5118 11.1667L12.8334 12.4884L14.9884 10.3334L13.6667 9.01172L11.5118 11.1667ZM10.3334 4.08343C9.64429 4.08343 9.08346 3.52261 9.08346 2.83345C9.08346 2.37345 8.71013 2.00012 8.25014 2.00012C7.79014 2.00012 7.41681 2.37345 7.41681 2.83345C7.41681 3.52261 6.85598 4.08343 6.16683 4.08343C5.70683 4.08343 5.3335 4.45676 5.3335 4.91676C5.3335 5.37675 5.70683 5.75008 6.16683 5.75008C6.85598 5.75008 7.41681 6.31091 7.41681 7.00007C7.41681 7.46006 7.79014 7.83339 8.25014 7.83339C8.71013 7.83339 9.08346 7.46006 9.08346 7.00007C9.08346 6.31091 9.64429 5.75008 10.3334 5.75008C10.7934 5.75008 11.1668 5.37675 11.1668 4.91676C11.1668 4.45676 10.7934 4.08343 10.3334 4.08343ZM18.25 17.8333C18.25 17.1441 17.6892 16.5833 17 16.5833C16.54 16.5833 16.1667 16.21 16.1667 15.75C16.1667 15.29 16.54 14.9167 17 14.9167C17.6892 14.9167 18.25 14.3558 18.25 13.6667C18.25 13.2067 18.6234 12.8333 19.0834 12.8333C19.5433 12.8333 19.9167 13.2067 19.9167 13.6667C19.9167 14.3558 20.4775 14.9167 21.1667 14.9167C21.6267 14.9167 22 15.29 22 15.75C22 16.21 21.6267 16.5833 21.1667 16.5833C20.4775 16.5833 19.9167 17.1441 19.9167 17.8333C19.9167 18.2933 19.5433 18.6666 19.0834 18.6666C18.6234 18.6666 18.25 18.2933 18.25 17.8333Z" fill="#62666A"/>
</svg>
