<svg width="24" height="24" viewBox="0 0 24 24" fill="none" xmlns="http://www.w3.org/2000/svg">
<path fill-rule="evenodd" clip-rule="evenodd" d="M12 22C17.5228 22 22 17.5228 22 12C22 6.47715 17.5228 2 12 2C6.47715 2 2 6.47715 2 12C2 17.5228 6.47715 22 12 22ZM12 20.1818C7.48131 20.1818 3.81818 16.5187 3.81818 12C3.81818 7.48131 7.48131 3.81818 12 3.81818C16.5187 3.81818 20.1818 7.48131 20.1818 12C20.1818 16.5187 16.5187 20.1818 12 20.1818ZM12 17.7851C8.77686 17.7851 6.21488 15.2231 6.21488 12C6.21488 8.77686 8.77686 6.21488 12 6.21488C15.2231 6.21488 17.7851 8.77686 17.7851 12C17.7851 15.2231 15.2231 17.7851 12 17.7851ZM12 16.1322C14.314 16.1322 16.1322 14.314 16.1322 12C16.1322 9.68595 14.314 7.86777 12 7.86777C9.68595 7.86777 7.86777 9.68595 7.86777 12C7.86777 14.314 9.68595 16.1322 12 16.1322ZM13.6529 12C13.6529 12.9129 12.9129 13.6529 12 13.6529C11.0871 13.6529 10.3471 12.9129 10.3471 12C10.3471 11.0871 11.0871 10.3471 12 10.3471C12.9129 10.3471 13.6529 11.0871 13.6529 12Z" fill="#62666A"/>
</svg>
