<svg width="24" height="24" viewBox="0 0 24 24" fill="none" xmlns="http://www.w3.org/2000/svg">
<path fill-rule="evenodd" clip-rule="evenodd" d="M8 14H9C9.55 14 10 13.55 10 13V12C10 11.45 9.55 11 9 11H7V16H8V14ZM14 12V15C14 15.55 13.55 16 13 16H11V11H13C13.55 11 14 11.45 14 12ZM17 14H16V16H15V11H17V12H16V13H17V14ZM8 12H9V13H8V12ZM12 12H13V15H12V12Z" fill="#62666A"/>
<path fill-rule="evenodd" clip-rule="evenodd" d="M6.63637 2.18182C5.28076 2.18182 4.18182 3.28076 4.18182 4.63637V19.3636C4.18182 20.7192 5.28076 21.8182 6.63637 21.8182H17.3636C18.7192 21.8182 19.8182 20.7192 19.8182 19.3636V7.9091V7.58226L19.593 7.34538L14.9263 2.43629L14.6844 2.18182H14.3333H6.63637ZM5.81819 4.63637C5.81819 4.1845 6.1845 3.81819 6.63637 3.81819H13.5152V7.70455C13.5152 8.26939 13.973 8.72728 14.5379 8.72728H18.1818V19.3636C18.1818 19.8155 17.8155 20.1818 17.3636 20.1818H6.63637C6.1845 20.1818 5.81819 19.8155 5.81819 19.3636V4.63637Z" fill="#62666A"/>
</svg>
