<svg width="24" height="24" viewBox="0 0 24 24" fill="none" xmlns="http://www.w3.org/2000/svg">
<path fill-rule="evenodd" clip-rule="evenodd" d="M4 19.3636V7.45455H15.2727C15.825 7.45455 16.2727 7.00683 16.2727 6.45455C16.2727 5.90226 15.825 5.45455 15.2727 5.45455H3C2.44772 5.45455 2 5.90226 2 6.45455V20.3636C2 20.9159 2.44772 21.3636 3 21.3636H18.5455C20.4533 21.3636 22 19.817 22 17.9091V6.45455C22 4.54665 20.4533 3 18.5455 3H17.7273C17.175 3 16.7273 3.44772 16.7273 4V15.4545C16.7273 16.0068 17.175 16.4545 17.7273 16.4545H18.5455C19.3488 16.4545 20 17.1058 20 17.9091C20 18.7124 19.3488 19.3636 18.5455 19.3636H4ZM20 14.7748C19.6098 14.5934 19.1801 14.4827 18.7273 14.4592V5.01125C19.4448 5.10073 20 5.7128 20 6.45455V14.7748ZM15.4545 9.72727V17.0909C15.4545 17.6432 15.0068 18.0909 14.4545 18.0909C13.9023 18.0909 13.4545 17.6432 13.4545 17.0909V9.72727C13.4545 9.17499 13.9023 8.72727 14.4545 8.72727C15.0068 8.72727 15.4545 9.17499 15.4545 9.72727ZM12.1818 17.0909V9.72727C12.1818 9.17499 11.7341 8.72727 11.1818 8.72727C10.6295 8.72727 10.1818 9.17499 10.1818 9.72727V17.0909C10.1818 17.6432 10.6295 18.0909 11.1818 18.0909C11.7341 18.0909 12.1818 17.6432 12.1818 17.0909ZM8.90909 9.72727V13.8182C8.90909 14.3705 8.46138 14.8182 7.90909 14.8182C7.35681 14.8182 6.90909 14.3705 6.90909 13.8182V9.72727C6.90909 9.17499 7.35681 8.72727 7.90909 8.72727C8.46138 8.72727 8.90909 9.17499 8.90909 9.72727Z" fill="#62666A"/>
</svg>
