<svg width="24" height="24" viewBox="0 0 24 24" fill="none" xmlns="http://www.w3.org/2000/svg">
<path fill-rule="evenodd" clip-rule="evenodd" d="M19 4V19C19 19.5523 19.4477 20 20 20C20.5523 20 21 19.5523 21 19V3C21 2.44772 20.5523 2 20 2H6.4C5.84772 2 5.4 2.44772 5.4 3C5.4 3.55228 5.84772 4 6.4 4H19ZM4 5.2C3.44772 5.2 3 5.64772 3 6.2V20.6C3 21.1523 3.44772 21.6 4 21.6H16.8C17.3523 21.6 17.8 21.1523 17.8 20.6V6.2C17.8 5.64772 17.3523 5.2 16.8 5.2H4ZM5 19.6V7.2H15.8V19.6H5ZM13.6 11.2H7.2C6.64772 11.2 6.2 10.7523 6.2 10.2C6.2 9.64772 6.64772 9.2 7.2 9.2H13.6C14.1523 9.2 14.6 9.64772 14.6 10.2C14.6 10.7523 14.1523 11.2 13.6 11.2ZM7.2 14.4H13.6C14.1523 14.4 14.6 13.9523 14.6 13.4C14.6 12.8477 14.1523 12.4 13.6 12.4H7.2C6.64772 12.4 6.2 12.8477 6.2 13.4C6.2 13.9523 6.64772 14.4 7.2 14.4ZM10.4 17.6H7.2C6.64772 17.6 6.2 17.1523 6.2 16.6C6.2 16.0477 6.64772 15.6 7.2 15.6H10.4C10.9523 15.6 11.4 16.0477 11.4 16.6C11.4 17.1523 10.9523 17.6 10.4 17.6Z" fill="#62666A"/>
</svg>
