<svg width="24" height="24" viewBox="0 0 24 24" fill="none" xmlns="http://www.w3.org/2000/svg">
<path fill-rule="evenodd" clip-rule="evenodd" d="M8.03915 5.91555C8.54465 5.6931 8.77411 5.10297 8.55166 4.59747C8.32921 4.09196 7.73908 3.86251 7.23358 4.08496C4.43039 5.31852 3 8.01327 3 11.9668V19.7073C3 20.2596 3.44772 20.7073 4 20.7073H9.81818C10.3705 20.7073 10.8182 20.2596 10.8182 19.7073V11.9668C10.8182 11.4145 10.3705 10.9668 9.81818 10.9668H5.0362C5.23509 8.33802 6.25151 6.70221 8.03915 5.91555ZM5 12.9668H8.81818V18.7073H5V12.9668ZM18.221 5.91555C18.7265 5.6931 18.9559 5.10297 18.7335 4.59747C18.511 4.09196 17.9209 3.86251 17.4154 4.08496C14.6122 5.31852 13.1818 8.01327 13.1818 11.9668V19.7073C13.1818 20.2596 13.6295 20.7073 14.1818 20.7073H20C20.5523 20.7073 21 20.2596 21 19.7073V11.9668C21 11.4145 20.5523 10.9668 20 10.9668H15.218C15.4169 8.33802 16.4333 6.70221 18.221 5.91555ZM15.1818 12.9668H19V18.7073H15.1818V12.9668Z" fill="#62666A"/>
</svg>
