<svg width="24" height="24" viewBox="0 0 24 24" fill="none" xmlns="http://www.w3.org/2000/svg">
<path fill-rule="evenodd" clip-rule="evenodd" d="M5.5 4.75C5.29377 4.75 5.10045 4.82966 4.96145 4.96445C4.82323 5.09848 4.75 5.27527 4.75 5.45455V18.5455C4.75 18.7247 4.82323 18.9015 4.96145 19.0355C5.10045 19.1703 5.29377 19.25 5.5 19.25H18.5C18.7062 19.25 18.8995 19.1703 19.0386 19.0355C19.1768 18.9015 19.25 18.7247 19.25 18.5455V8.68108L15.1961 4.75H5.5ZM3.91723 3.8876C4.34083 3.47683 4.91058 3.25 5.5 3.25H15.5C15.6949 3.25 15.8822 3.32588 16.0221 3.46157L20.5221 7.82521C20.6678 7.96647 20.75 8.16072 20.75 8.36364V18.5455C20.75 19.1377 20.5072 19.7009 20.0828 20.1124C19.6592 20.5232 19.0894 20.75 18.5 20.75H5.5C4.91058 20.75 4.34084 20.5232 3.91723 20.1124C3.49284 19.7009 3.25 19.1377 3.25 18.5455V5.45455C3.25 4.86229 3.49284 4.29913 3.91723 3.8876ZM8 6.25C8.41421 6.25 8.75 6.58579 8.75 7V8.25H13.25V7C13.25 6.58579 13.5858 6.25 14 6.25C14.4142 6.25 14.75 6.58579 14.75 7V9C14.75 9.41421 14.4142 9.75 14 9.75H8C7.58579 9.75 7.25 9.41421 7.25 9V7C7.25 6.58579 7.58579 6.25 8 6.25ZM8 12.25C7.58579 12.25 7.25 12.5858 7.25 13V17C7.25 17.4142 7.58579 17.75 8 17.75C8.41421 17.75 8.75 17.4142 8.75 17V13.75H15.25V17C15.25 17.4142 15.5858 17.75 16 17.75C16.4142 17.75 16.75 17.4142 16.75 17V13C16.75 12.5858 16.4142 12.25 16 12.25H8Z" fill="#62666A"/>
</svg>
