<svg width="24" height="24" viewBox="0 0 24 24" fill="none" xmlns="http://www.w3.org/2000/svg">
<path fill-rule="evenodd" clip-rule="evenodd" d="M14.7096 14H15.4996L19.7396 18.26C20.1496 18.67 20.1496 19.34 19.7396 19.75C19.3296 20.16 18.6596 20.16 18.2496 19.75L13.9996 15.5V14.71L13.7296 14.43C12.3296 15.63 10.4196 16.25 8.38965 15.91C5.60965 15.44 3.38965 13.12 3.04965 10.32C2.52965 6.09002 6.08965 2.53002 10.3196 3.05002C13.1196 3.39002 15.4396 5.61002 15.9096 8.39002C16.2496 10.42 15.6296 12.33 14.4296 13.73L14.7096 14ZM4.99965 9.50002C4.99965 11.99 7.00965 14 9.49965 14C11.9896 14 13.9996 11.99 13.9996 9.50002C13.9996 7.01002 11.9896 5.00002 9.49965 5.00002C7.00965 5.00002 4.99965 7.01002 4.99965 9.50002Z" fill="#62666A"/>
</svg>
