<svg width="24" height="24" viewBox="0 0 24 24" fill="none" xmlns="http://www.w3.org/2000/svg">
<path fill-rule="evenodd" clip-rule="evenodd" d="M3.66927 2.83337C3.20903 2.83337 2.83594 3.20647 2.83594 3.66671V9.50004C2.83594 9.96028 3.20903 10.3334 3.66927 10.3334H9.5026C9.96284 10.3334 10.3359 9.96028 10.3359 9.50004V3.66671C10.3359 3.20647 9.96284 2.83337 9.5026 2.83337H3.66927ZM4.5026 8.66671V4.50004H8.66927V8.66671H4.5026ZM3.66927 13.6667C3.20903 13.6667 2.83594 14.0398 2.83594 14.5001V20.3334C2.83594 20.7937 3.20903 21.1667 3.66927 21.1667H9.5026C9.96284 21.1667 10.3359 20.7937 10.3359 20.3334V14.5001C10.3359 14.0398 9.96284 13.6667 9.5026 13.6667H3.66927ZM4.5026 19.5001V15.3334H8.66927V19.5001H4.5026ZM12.8359 4.50008C12.8359 4.03984 13.209 3.66675 13.6693 3.66675H20.3359C20.7962 3.66675 21.1693 4.03984 21.1693 4.50008C21.1693 4.96032 20.7962 5.33341 20.3359 5.33341H13.6693C13.209 5.33341 12.8359 4.96032 12.8359 4.50008ZM13.6693 7.83337C13.209 7.83337 12.8359 8.20647 12.8359 8.66671C12.8359 9.12694 13.209 9.50004 13.6693 9.50004H20.3359C20.7962 9.50004 21.1693 9.12694 21.1693 8.66671C21.1693 8.20647 20.7962 7.83337 20.3359 7.83337H13.6693ZM12.8359 15.3333C12.8359 14.8731 13.209 14.5 13.6693 14.5H20.3359C20.7962 14.5 21.1693 14.8731 21.1693 15.3333C21.1693 15.7936 20.7962 16.1667 20.3359 16.1667H13.6693C13.209 16.1667 12.8359 15.7936 12.8359 15.3333ZM13.6693 18.6667C13.209 18.6667 12.8359 19.0398 12.8359 19.5001C12.8359 19.9603 13.209 20.3334 13.6693 20.3334H20.3359C20.7962 20.3334 21.1693 19.9603 21.1693 19.5001C21.1693 19.0398 20.7962 18.6667 20.3359 18.6667H13.6693Z" fill="#62666A"/>
</svg>
