<svg width="24" height="24" viewBox="0 0 24 24" fill="none" xmlns="http://www.w3.org/2000/svg">
<path fill-rule="evenodd" clip-rule="evenodd" d="M15.8646 3.29289C16.2551 2.90237 16.8883 2.90237 17.2788 3.29289L20.3486 6.36268C20.7391 6.7532 20.7391 7.38637 20.3486 7.77689L17.2788 10.8467C16.8883 11.2372 16.2551 11.2372 15.8646 10.8467L12.7948 7.77689C12.4043 7.38637 12.4043 6.7532 12.7948 6.36268L15.8646 3.29289ZM14.9162 7.06979L16.5717 8.72536L18.2273 7.06979L16.5717 5.41421L14.9162 7.06979ZM3 4.40345C3 3.85117 3.44772 3.40345 4 3.40345H9.33333C9.88562 3.40345 10.3333 3.85117 10.3333 4.40345V9.73679C10.3333 10.2891 9.88562 10.7368 9.33333 10.7368H4C3.44772 10.7368 3 10.2891 3 9.73679V4.40345ZM5 8.73679H8.33333V5.40345H5V8.73679ZM13.9048 13.3082C13.3525 13.3082 12.9048 13.7559 12.9048 14.3082V19.6415C12.9048 20.1938 13.3525 20.6415 13.9048 20.6415H19.2381C19.7904 20.6415 20.2381 20.1938 20.2381 19.6415V14.3082C20.2381 13.7559 19.7904 13.3082 19.2381 13.3082H13.9048ZM18.2381 18.6415H14.9048V15.3082H18.2381V18.6415ZM3 14.3082C3 13.7559 3.44772 13.3082 4 13.3082H9.33333C9.88562 13.3082 10.3333 13.7559 10.3333 14.3082V19.6415C10.3333 20.1938 9.88562 20.6415 9.33333 20.6415H4C3.44772 20.6415 3 20.1938 3 19.6415V14.3082ZM5 15.3082V18.6415H8.33333V15.3082H5Z" fill="#62666A"/>
</svg>
