<svg width="24" height="24" viewBox="0 0 24 24" fill="none" xmlns="http://www.w3.org/2000/svg">
<path d="M3 17L7.125 6H9.1L13.225 17H11.325L10.35 14.2H5.9L4.9 17H3ZM6.475 12.6H9.75L8.15 8.05H8.05L6.475 12.6ZM16.35 17.25C15.5 17.25 14.825 17.0208 14.325 16.5625C13.825 16.1042 13.575 15.5 13.575 14.75C13.575 14.0167 13.8625 13.4125 14.4375 12.9375C15.0125 12.4625 15.75 12.225 16.65 12.225C17.0333 12.225 17.4083 12.2583 17.775 12.325C18.1417 12.3917 18.4583 12.4833 18.725 12.6V12.3C18.725 11.8167 18.5542 11.425 18.2125 11.125C17.8708 10.825 17.4167 10.675 16.85 10.675C16.4667 10.675 16.1167 10.7542 15.8 10.9125C15.4833 11.0708 15.2083 11.3 14.975 11.6L13.8 10.725C14.2 10.2417 14.6542 9.88333 15.1625 9.65C15.6708 9.41667 16.2417 9.3 16.875 9.3C18.025 9.3 18.8833 9.57083 19.45 10.1125C20.0167 10.6542 20.3 11.4667 20.3 12.55V17H18.725V16.075H18.625C18.3917 16.4583 18.075 16.75 17.675 16.95C17.275 17.15 16.8333 17.25 16.35 17.25ZM16.65 15.9C17.2333 15.9 17.7292 15.7 18.1375 15.3C18.5458 14.9 18.75 14.4333 18.75 13.9C18.5167 13.7667 18.2375 13.6625 17.9125 13.5875C17.5875 13.5125 17.2667 13.475 16.95 13.475C16.4167 13.475 16 13.5917 15.7 13.825C15.4 14.0583 15.25 14.3667 15.25 14.75C15.25 15.0833 15.3833 15.3583 15.65 15.575C15.9167 15.7917 16.25 15.9 16.65 15.9Z" fill="#62666A"/>
</svg>
