<svg width="24" height="24" viewBox="0 0 24 24" fill="none" xmlns="http://www.w3.org/2000/svg">
<path d="M11.1782 1.71563C11.4008 1.63518 11.6485 1.64949 11.8628 1.75664L22.3813 7.01543C22.6757 7.16272 22.8617 7.46367 22.8618 7.79277C22.8615 8.12183 22.6757 8.42389 22.3813 8.57109L19.7065 9.90801V18.3104C19.7065 19.04 19.3569 19.6624 18.8765 20.1492C18.3997 20.6323 17.7535 21.0285 17.0229 21.3416C15.5587 21.9691 13.5959 22.3357 11.4741 22.3357C9.35255 22.3357 7.38953 21.969 5.92529 21.3416C5.19491 21.0285 4.54749 20.6322 4.0708 20.1492C3.59061 19.6625 3.24178 19.0397 3.2417 18.3104V9.90801L0.566895 8.57109C0.272516 8.42391 0.0866988 8.12186 0.0864258 7.79277C0.0865725 7.46373 0.272675 7.16275 0.566895 7.01543L11.0854 1.75664L11.1782 1.71563ZM11.8628 13.8299C11.6182 13.952 11.33 13.952 11.0854 13.8299L4.97998 10.7771V18.3104C4.98006 18.452 5.04396 18.6607 5.30811 18.9285C5.5764 19.2003 6.00853 19.4852 6.60986 19.743C7.8102 20.2573 9.53004 20.5964 11.4741 20.5965C13.418 20.5964 15.1371 20.2573 16.3374 19.743C16.9389 19.4852 17.3708 19.2003 17.6392 18.9285C17.9036 18.6605 17.9672 18.452 17.9673 18.3104V10.7771L11.8628 13.8299ZM23.0444 10.0789C23.5245 10.079 23.9134 10.468 23.9136 10.948V16.2068C23.9134 16.6869 23.5245 17.0769 23.0444 17.077C22.5643 17.077 22.1754 16.687 22.1753 16.2068V10.948C22.1755 10.468 22.5643 10.0789 23.0444 10.0789ZM2.8999 7.79277L11.4731 12.0799L20.0474 7.79277L11.4731 3.50566L2.8999 7.79277Z" fill="#4E5255"/>
</svg>
