<svg width="24" height="24" viewBox="0 0 24 24" fill="none" xmlns="http://www.w3.org/2000/svg">
<path d="M18.999 15.4187L14.419 19.9987C14.029 20.3887 13.389 20.3887 12.999 19.9987C12.609 19.6087 12.609 18.9687 12.999 18.5787L15.879 15.7087H5.70898C5.15898 15.7087 4.70898 15.2587 4.70898 14.7087V4.70874C4.70898 4.15874 5.15898 3.70874 5.70898 3.70874C6.25898 3.70874 6.70898 4.15874 6.70898 4.70874V13.7087H15.879L12.999 10.8387C12.609 10.4487 12.609 9.80874 12.999 9.41874C13.389 9.02874 14.029 9.02874 14.419 9.41874L18.999 13.9987C19.389 14.3887 19.389 15.0287 18.999 15.4187Z" fill="#62666A"/>
</svg>
