<svg width="24" height="24" viewBox="0 0 24 24" fill="none" xmlns="http://www.w3.org/2000/svg">
<path d="M5.00148 15.4187L9.58148 19.9987C9.97148 20.3887 10.6115 20.3887 11.0015 19.9987C11.3915 19.6087 11.3915 18.9687 11.0015 18.5787L8.12148 15.7087H18.2915C18.8415 15.7087 19.2915 15.2587 19.2915 14.7087V4.70874C19.2915 4.15874 18.8415 3.70874 18.2915 3.70874C17.7415 3.70874 17.2915 4.15874 17.2915 4.70874V13.7087H8.12148L11.0015 10.8387C11.3915 10.4487 11.3915 9.80874 11.0015 9.41874C10.6115 9.02874 9.97148 9.02874 9.58148 9.41874L5.00148 13.9987C4.61148 14.3887 4.61148 15.0287 5.00148 15.4187Z" fill="#62666A"/>
</svg>
