<svg width="24" height="24" viewBox="0 0 24 24" fill="none" xmlns="http://www.w3.org/2000/svg">
<path d="M19.3542 18.0002C19.9049 18.0002 20.3509 18.4478 20.3512 18.9999V21.0004C20.3512 21.5527 19.905 22 19.3542 22H4.59338C4.04258 22 3.59646 21.5527 3.59646 21.0004V18.9999C3.59667 18.4478 4.04271 18.0002 4.59338 18.0002H19.3542Z" fill="#62666A"/>
<path fill-rule="evenodd" clip-rule="evenodd" d="M15.2369 2C15.7876 2 16.2337 2.44739 16.2338 2.99965V5.272L21.0019 5.28635C21.5527 5.28635 22 5.73487 22 6.28717V15.8005C22 16.3528 21.5527 16.8002 21.0019 16.8002H3.05046C2.49985 16.8 2.05356 16.3527 2.05355 15.8005L2 6.27282C2 5.72065 2.4463 5.27221 2.99691 5.272H7.71151V2.99965C7.71156 2.44739 8.15883 2 8.70959 2H15.2369ZM9.58028 13.2H14.3673V9.59991H9.58028V13.2ZM9.7065 5.272H14.2399V3.9993H9.7065V5.272Z" fill="#62666A"/>
</svg>
