<svg width="24" height="24" viewBox="0 0 24 24" fill="none" xmlns="http://www.w3.org/2000/svg">
<path d="M19.1908 4.29236C19.1532 4.12291 18.9892 4 18.7988 4H5.19955C5.00916 4 4.84517 4.12218 4.80757 4.29236L4.00761 7.92873C3.98442 8.03564 4.01481 8.14618 4.09081 8.23055C4.16681 8.31491 4.2804 8.36364 4.40039 8.36364H5.20035C5.38354 8.36364 5.54353 8.25018 5.58833 8.08873C5.59553 8.06182 6.34429 5.45455 8.40019 5.45455H10.4001V16.7273C10.4001 18.5171 7.71382 18.5455 7.59943 18.5455C7.37944 18.5455 7.20025 18.7091 7.20025 18.9091V19.6364C7.20025 19.8371 7.37944 20 7.60023 20H16.3998C16.6206 20 16.7998 19.8371 16.7998 19.6364V18.9091C16.7998 18.7091 16.6206 18.5462 16.4006 18.5455C16.2862 18.5455 13.5999 18.5171 13.5999 16.7273V5.45455H15.5998C17.6557 5.45455 18.4045 8.06182 18.4117 8.08873C18.4565 8.25018 18.6165 8.36364 18.7996 8.36364H19.5996C19.7196 8.36364 19.8332 8.31491 19.9092 8.23055C19.9852 8.14618 20.0156 8.03564 19.9924 7.92873L19.1924 4.29236H19.1908Z" fill="#62666A"/>
</svg>
