<svg width="48" height="48" viewBox="0 0 48 48" fill="none" xmlns="http://www.w3.org/2000/svg">
<path d="M24 24L38 10L37.8273 10.1727" stroke="#FC916C" stroke-width="2" stroke-linecap="round" stroke-linejoin="round"/>
<path d="M38 9.99996L35.5412 3.85242L30 9.14748L31.4754 16.5246L38.8525 18L44.1478 12.459L38 9.99996Z" stroke="#FC916C" stroke-width="2" stroke-linecap="round" stroke-linejoin="round"/>
<path d="M45 24C45 35.598 35.598 45 24 45C12.402 45 3 35.598 3 24C3 12.402 12.402 3 24 3" stroke="#FC916C" stroke-width="2" stroke-linecap="round" stroke-linejoin="round"/>
<path d="M38 24C38 31.732 31.732 38 24 38C16.268 38 10 31.732 10 24C10 16.268 16.268 10 24 10" stroke="#FC916C" stroke-width="2" stroke-linecap="round" stroke-linejoin="round"/>
<path d="M31 24C31 27.866 27.866 31 24 31C20.134 31 17 27.866 17 24C17 20.134 20.134 17 24 17" stroke="#FC916C" stroke-width="2" stroke-linecap="round" stroke-linejoin="round"/>
</svg>
