<svg width="24" height="24" viewBox="0 0 24 24" fill="none" xmlns="http://www.w3.org/2000/svg">
<path fill-rule="evenodd" clip-rule="evenodd" d="M8 3C7.44772 3 7 3.44772 7 4V6L4 6C3.44772 6 3 6.44772 3 7C3 7.55228 3.44772 8 4 8L7.99915 8C7.99943 8 7.99971 8 8 8C8.00029 8 8.00057 8 8.00085 8L15.9985 8C15.999 8 15.9995 8 16 8C16.0005 8 16.001 8 16.0015 8L20 8C20.5523 8 21 7.55228 21 7C21 6.44771 20.5523 6 20 6L17 6V4C17 3.44772 16.5523 3 16 3H8ZM15 6V5H9V6L15 6ZM6 9C6.55228 9 7 9.44772 7 10V18.5714C7 18.6689 7.04021 18.7729 7.12899 18.8574C7.21944 18.9436 7.35208 19 7.5 19H16.5C16.6479 19 16.7806 18.9436 16.871 18.8574C16.9598 18.7729 17 18.6689 17 18.5714V10C17 9.44772 17.4477 9 18 9C18.5523 9 19 9.44772 19 10V18.5714C19 19.2317 18.7241 19.8545 18.2503 20.3057C17.7781 20.7554 17.1477 21 16.5 21H7.5C6.85227 21 6.22185 20.7554 5.74968 20.3057C5.27586 19.8545 5 19.2317 5 18.5714V10C5 9.44772 5.44772 9 6 9ZM11 11C11 10.4477 10.5523 10 10 10C9.44772 10 9 10.4477 9 11V16C9 16.5523 9.44772 17 10 17C10.5523 17 11 16.5523 11 16V11ZM14 10C14.5523 10 15 10.4477 15 11V16C15 16.5523 14.5523 17 14 17C13.4477 17 13 16.5523 13 16V11C13 10.4477 13.4477 10 14 10Z" fill="#62666A"/>
</svg>
