<svg width="24" height="24" viewBox="0 0 24 24" fill="none" xmlns="http://www.w3.org/2000/svg">
<path fill-rule="evenodd" clip-rule="evenodd" d="M15.1746 4.40747C15.4392 4.40747 15.6928 4.5127 15.8796 4.69996C16.2696 5.08996 16.2696 5.72996 15.8696 6.11996L12.6996 9.28996C12.3096 9.67996 11.6796 9.67996 11.2896 9.28996L8.11965 6.11996C7.72965 5.72996 7.72965 5.08996 8.11965 4.69996C8.30648 4.5127 8.56013 4.40747 8.82465 4.40747C9.08917 4.40747 9.34282 4.5127 9.52965 4.69996L11.9996 7.16996L14.4696 4.69996C14.6565 4.5127 14.9101 4.40747 15.1746 4.40747ZM11.9996 16.83L9.52965 19.3C9.13965 19.69 8.50965 19.69 8.11965 19.3C7.72965 18.91 7.72965 18.27 8.12965 17.89L11.2996 14.72C11.4865 14.5327 11.7401 14.4275 12.0046 14.4275C12.2692 14.4275 12.5228 14.5327 12.7096 14.72L15.8796 17.89C16.2696 18.28 16.2696 18.91 15.8796 19.3C15.4896 19.69 14.8596 19.69 14.4696 19.3L11.9996 16.83Z" fill="#62666A"/>
</svg>
