<svg width="24" height="24" viewBox="0 0 24 24" fill="none" xmlns="http://www.w3.org/2000/svg">
<path fill-rule="evenodd" clip-rule="evenodd" d="M14.4596 8.29002L11.9996 5.83002L9.52965 8.29002C9.13965 8.68002 8.50965 8.68002 8.11965 8.29002C7.72965 7.90002 7.72965 7.27002 8.11965 6.88002L11.2896 3.70002C11.4765 3.51276 11.7301 3.40753 11.9946 3.40753C12.2592 3.40753 12.5128 3.51276 12.6996 3.70002L15.8696 6.88002C16.2596 7.27002 16.2596 7.90002 15.8696 8.29002C15.4796 8.68002 14.8496 8.68002 14.4596 8.29002ZM9.53965 15.71L11.9996 18.17L14.4696 15.72C14.6565 15.5328 14.9101 15.4275 15.1746 15.4275C15.4392 15.4275 15.6928 15.5328 15.8796 15.72C16.2696 16.11 16.2696 16.74 15.8796 17.13L12.7096 20.3C12.3196 20.69 11.6896 20.69 11.2996 20.3L8.12965 17.12C7.73965 16.73 7.73965 16.1 8.12965 15.71C8.31648 15.5228 8.57013 15.4175 8.83465 15.4175C9.09917 15.4175 9.35282 15.5228 9.53965 15.71Z" fill="#62666A"/>
</svg>
