<svg width="24" height="24" viewBox="0 0 24 24" fill="none" xmlns="http://www.w3.org/2000/svg">
<path d="M4.7998 18.2998C4.7998 18.7969 5.20314 19.2002 5.7002 19.2002H9.2998V21H5.7002C4.20903 21 3 19.791 3 18.2998V14.7002H4.7998V18.2998ZM21 18.2998C21 19.791 19.791 21 18.2998 21H14.7002V19.2002H18.2998C18.7969 19.2002 19.2002 18.7969 19.2002 18.2998V14.7002H21V18.2998ZM12 6.59961C13.7806 6.5998 15.1354 8.16446 14.8428 9.88281L14.5459 11.6211C14.4267 12.3206 14.0213 12.9136 13.458 13.291V14.082C13.458 14.7189 13.8897 14.7782 14.5156 14.9531L15.8428 15.334C15.867 15.341 15.8911 15.3487 15.915 15.3564C17.3332 15.8175 16.1904 17.4004 14.6992 17.4004H9.2998C7.80866 17.4004 6.66596 15.8175 8.08398 15.3564C8.10813 15.3486 8.13267 15.341 8.15723 15.334L9.48438 14.9531C10.1102 14.7782 10.542 14.7188 10.542 14.082V13.291C9.97874 12.9136 9.5723 12.3207 9.45312 11.6211L9.15723 9.88281C8.86452 8.16431 10.2192 6.59961 12 6.59961ZM9.2998 4.7998H5.7002C5.20314 4.7998 4.7998 5.20314 4.7998 5.7002V9.2998H3V5.7002C3 4.20903 4.20903 3 5.7002 3H9.2998V4.7998ZM18.2998 3C19.791 3 21 4.20903 21 5.7002V9.2998H19.2002V5.7002C19.2002 5.20314 18.7969 4.7998 18.2998 4.7998H14.7002V3H18.2998Z" fill="#767B7F"/>
</svg>
