<svg width="22" height="22" viewBox="0 0 22 22" fill="none" xmlns="http://www.w3.org/2000/svg">
<path d="M11 0C4.935 0 0 4.935 0 11C0 17.065 4.935 22 11 22C17.065 22 22 17.065 22 11C22 4.935 17.065 0 11 0ZM8.289 6.209C8.979 5.44 9.968 5 11 5C12.032 5 13.021 5.44 13.711 6.209C14.401 6.977 14.734 8.006 14.624 9.033L14.54 9.819C14.346 11.632 12.823 13 11 13C9.177 13 7.654 11.632 7.46 9.819L7.376 9.033C7.266 8.006 7.599 6.977 8.289 6.209ZM11 20C8.409 20 6.078 18.893 4.434 17.136C4.636 16.544 5.091 16.074 5.685 15.877C9.21 14.712 12.788 14.711 16.313 15.877C16.908 16.074 17.362 16.544 17.565 17.137C15.921 18.894 13.59 20 11 20Z" fill="#62666A"/>
</svg>
