<svg width="24" height="24" viewBox="0 0 24 24" fill="none" xmlns="http://www.w3.org/2000/svg">
<path fill-rule="evenodd" clip-rule="evenodd" d="M18.3792 19.7014C20.5912 17.8671 22 15.0981 22 12C22 6.47715 17.5228 2 12 2C6.47715 2 2 6.47715 2 12C2 15.0981 3.40884 17.8671 5.6208 19.7014C5.63108 19.7103 5.64157 19.7189 5.65225 19.7273C7.37891 21.1474 9.58989 22 12 22C14.4101 22 16.6211 21.1474 18.3478 19.7273C18.3584 19.7189 18.3689 19.7103 18.3792 19.7014ZM18.4229 17.0689C19.5244 15.6751 20.1818 13.9143 20.1818 12C20.1818 7.48131 16.5187 3.81818 12 3.81818C7.48131 3.81818 3.81818 7.48131 3.81818 12C3.81818 13.9143 4.47562 15.6751 5.57702 17.0688C5.86226 16.3996 6.36022 15.8284 7.01216 15.456L8.62808 14.5292C8.09878 13.8247 7.78512 12.949 7.78512 12V10.3471C7.78512 8.01941 9.6723 6.13223 12 6.13223C14.3277 6.13223 16.2149 8.01941 16.2149 10.3471V12C16.2149 12.9496 15.9008 13.826 15.3708 14.5307L16.9864 15.4552C17.6393 15.8281 18.1376 16.3995 18.4229 17.0689ZM16.876 18.5708V18.3975C16.876 17.8338 16.5741 17.3135 16.084 17.0337L13.8808 15.7729C13.3146 16.0558 12.6759 16.2149 12 16.2149C11.323 16.2149 10.6833 16.0552 10.1164 15.7716L7.91532 17.034C7.42592 17.3135 7.12397 17.8338 7.12397 18.3975V18.5708C8.4857 19.5829 10.1729 20.1818 12 20.1818C13.8271 20.1818 15.5143 19.5829 16.876 18.5708ZM13.3376 13.989C13.3514 13.9788 13.3655 13.9691 13.3799 13.9598C13.9949 13.5259 14.3967 12.8098 14.3967 12V10.3471C14.3967 9.02356 13.3235 7.95041 12 7.95041C10.6765 7.95041 9.60331 9.02356 9.60331 10.3471V12C9.60331 13.3235 10.6765 14.3967 12 14.3967C12.4953 14.3967 12.9555 14.2464 13.3376 13.989Z" fill="#767B7F"/>
</svg>
