<svg width="24" height="24" viewBox="0 0 24 24" fill="none" xmlns="http://www.w3.org/2000/svg">
<path d="M16.5145 0.999359C17.4406 0.999409 18.3214 1.19727 19.118 1.54721C19.4108 1.67599 19.6212 1.94088 19.6805 2.25522C19.7396 2.56991 19.6393 2.89404 19.4129 3.12045L16.7166 5.81577L18.1824 7.28256L20.8797 4.58725L20.9686 4.50717C21.1864 4.33724 21.4687 4.26803 21.744 4.31967C22.0586 4.37878 22.3251 4.58911 22.4539 4.88217C22.8038 5.67861 22.9998 6.5595 22.9998 7.48666C22.9994 11.0688 20.0967 13.9718 16.5145 13.972C15.8741 13.972 15.256 13.8772 14.6717 13.7044L7.66779 21.7025C6.21832 23.3565 3.67018 23.4419 2.11407 21.8861C0.573278 20.345 0.639054 17.8255 2.25958 16.3675L8.96271 10.3333L6.58282 7.95444H3.9754C3.65146 7.95435 3.34859 7.79224 3.16876 7.5228L1.16193 4.51303C0.905943 4.12853 0.957369 3.61609 1.284 3.2894L3.28986 1.28354L3.42072 1.17416C3.74289 0.94913 4.17704 0.938233 4.51349 1.16245L7.52228 3.1683C7.79201 3.34815 7.9549 3.65173 7.9549 3.97592V6.58334L10.158 8.78647C10.0726 8.36655 10.0282 7.93183 10.0281 7.48666C10.0281 3.90404 12.9318 0.999359 16.5145 0.999359ZM18.8445 15.2982C19.2231 14.9196 19.8369 14.9198 20.2156 15.2982L21.9822 17.0648C23.3381 18.4227 23.3408 20.6237 21.9813 21.9818C20.623 23.3386 18.4211 23.3393 17.0633 21.9818L13.6785 18.596C13.2999 18.2174 13.2999 17.6036 13.6785 17.2249C14.0572 16.8464 14.671 16.8464 15.0496 17.2249L18.4354 20.6107C19.0355 21.2102 20.0098 21.2104 20.6111 20.6097C21.1736 20.0476 21.2089 19.1562 20.7156 18.5511L20.6102 18.4349L18.8445 16.6693C18.4662 16.2906 18.4662 15.6768 18.8445 15.2982ZM3.55646 17.808V17.8089C2.76247 18.5234 2.73052 19.7594 3.48615 20.515C4.24906 21.2773 5.49804 21.2352 6.2088 20.4242L12.8514 12.8392C12.1505 12.3588 11.5495 11.7441 11.0838 11.0326L3.55646 17.808ZM16.5145 2.93881C14.0029 2.93881 11.9676 4.97511 11.9676 7.48666C11.9677 8.03819 12.065 8.56696 12.2449 9.056C12.2631 9.09404 12.279 9.13265 12.2918 9.17221C12.9617 10.8482 14.599 12.0326 16.5145 12.0326C19.0256 12.0324 21.0599 9.99772 21.0604 7.48666C21.0604 7.37715 21.0554 7.26794 21.0477 7.16049L18.868 9.3392C18.4895 9.71768 17.8766 9.71837 17.4979 9.34018L17.4969 9.3392V9.33823L14.66 6.50229C14.4784 6.32052 14.3758 6.07369 14.3758 5.81674C14.3759 5.55969 14.4782 5.31296 14.66 5.1312L16.8387 2.95151C16.7316 2.94385 16.6235 2.93882 16.5145 2.93881ZM3.21759 4.09897L4.49493 6.01498H6.01544V4.49448L4.09943 3.21713L3.21759 4.09897Z" fill="#62666A"/>
</svg>
